<?xml version="1.0" encoding="UTF-8"?>
<svg width="500" height="500" viewBox="0 0 500 500" xmlns="http://www.w3.org/2000/svg">
  <!-- Main mandala structure -->
  <g fill="none" stroke="#D4AF37" stroke-width="0.8">
    <!-- Outer circles -->
    <circle cx="250" cy="250" r="240" stroke-opacity="0.8"/>
    <circle cx="250" cy="250" r="230" stroke-opacity="0.8"/>
    <circle cx="250" cy="250" r="220" stroke-opacity="0.85"/>
    
    <!-- Central pattern -->
    <circle cx="250" cy="250" r="210" stroke-opacity="0.9"/>
    <circle cx="250" cy="250" r="200" stroke-opacity="0.9"/>
    <circle cx="250" cy="250" r="190" stroke-opacity="0.9"/>
    <circle cx="250" cy="250" r="180" stroke-opacity="0.95"/>
    
    <!-- Inner design circles -->
    <circle cx="250" cy="250" r="160" stroke-opacity="1"/>
    <circle cx="250" cy="250" r="140" stroke-opacity="1"/>
    <circle cx="250" cy="250" r="120" stroke-opacity="1"/>
    <circle cx="250" cy="250" r="100" stroke-opacity="1"/>
    <circle cx="250" cy="250" r="80" stroke-opacity="1"/>
    <circle cx="250" cy="250" r="60" stroke-opacity="1"/>
    <circle cx="250" cy="250" r="40" stroke-opacity="1"/>
    <circle cx="250" cy="250" r="20" stroke-opacity="1"/>
  </g>

  <!-- Decorative rays and patterns -->
  <g stroke="#D4AF37" stroke-width="0.8">
    <!-- 32 radial lines -->
    <g>
      <!-- Dynamic radial lines generation -->
      <path d="M250 10 L250 490" transform="rotate(0, 250, 250)" />
      <path d="M250 10 L250 490" transform="rotate(11.25, 250, 250)" />
      <path d="M250 10 L250 490" transform="rotate(22.5, 250, 250)" />
      <path d="M250 10 L250 490" transform="rotate(33.75, 250, 250)" />
      <path d="M250 10 L250 490" transform="rotate(45, 250, 250)" />
      <path d="M250 10 L250 490" transform="rotate(56.25, 250, 250)" />
      <path d="M250 10 L250 490" transform="rotate(67.5, 250, 250)" />
      <path d="M250 10 L250 490" transform="rotate(78.75, 250, 250)" />
      <path d="M250 10 L250 490" transform="rotate(90, 250, 250)" />
      <path d="M250 10 L250 490" transform="rotate(101.25, 250, 250)" />
      <path d="M250 10 L250 490" transform="rotate(112.5, 250, 250)" />
      <path d="M250 10 L250 490" transform="rotate(123.75, 250, 250)" />
      <path d="M250 10 L250 490" transform="rotate(135, 250, 250)" />
      <path d="M250 10 L250 490" transform="rotate(146.25, 250, 250)" />
      <path d="M250 10 L250 490" transform="rotate(157.5, 250, 250)" />
      <path d="M250 10 L250 490" transform="rotate(168.75, 250, 250)" />
    </g>
    
    <!-- Decorative elements at intersections -->
    <g>
      <!-- Decorative dots at 160px radius -->
      <circle cx="250" cy="90" r="2" fill="#D4AF37" transform="rotate(0, 250, 250)" />
      <circle cx="250" cy="90" r="2" fill="#D4AF37" transform="rotate(22.5, 250, 250)" />
      <circle cx="250" cy="90" r="2" fill="#D4AF37" transform="rotate(45, 250, 250)" />
      <circle cx="250" cy="90" r="2" fill="#D4AF37" transform="rotate(67.5, 250, 250)" />
      <circle cx="250" cy="90" r="2" fill="#D4AF37" transform="rotate(90, 250, 250)" />
      <circle cx="250" cy="90" r="2" fill="#D4AF37" transform="rotate(112.5, 250, 250)" />
      <circle cx="250" cy="90" r="2" fill="#D4AF37" transform="rotate(135, 250, 250)" />
      <circle cx="250" cy="90" r="2" fill="#D4AF37" transform="rotate(157.5, 250, 250)" />
      <circle cx="250" cy="90" r="2" fill="#D4AF37" transform="rotate(180, 250, 250)" />
      <circle cx="250" cy="90" r="2" fill="#D4AF37" transform="rotate(202.5, 250, 250)" />
      <circle cx="250" cy="90" r="2" fill="#D4AF37" transform="rotate(225, 250, 250)" />
      <circle cx="250" cy="90" r="2" fill="#D4AF37" transform="rotate(247.5, 250, 250)" />
      <circle cx="250" cy="90" r="2" fill="#D4AF37" transform="rotate(270, 250, 250)" />
      <circle cx="250" cy="90" r="2" fill="#D4AF37" transform="rotate(292.5, 250, 250)" />
      <circle cx="250" cy="90" r="2" fill="#D4AF37" transform="rotate(315, 250, 250)" />
      <circle cx="250" cy="90" r="2" fill="#D4AF37" transform="rotate(337.5, 250, 250)" />
    </g>
  </g>
  
  <!-- Decorative petals and ornate elements -->
  <g>
    <!-- Outer petal design -->
    <g fill="none" stroke="#D4AF37" stroke-width="0.8">
      <path d="M250 50 C270 70, 270 90, 250 110 C230 90, 230 70, 250 50Z" transform="rotate(0, 250, 250)" />
      <path d="M250 50 C270 70, 270 90, 250 110 C230 90, 230 70, 250 50Z" transform="rotate(22.5, 250, 250)" />
      <path d="M250 50 C270 70, 270 90, 250 110 C230 90, 230 70, 250 50Z" transform="rotate(45, 250, 250)" />
      <path d="M250 50 C270 70, 270 90, 250 110 C230 90, 230 70, 250 50Z" transform="rotate(67.5, 250, 250)" />
      <path d="M250 50 C270 70, 270 90, 250 110 C230 90, 230 70, 250 50Z" transform="rotate(90, 250, 250)" />
      <path d="M250 50 C270 70, 270 90, 250 110 C230 90, 230 70, 250 50Z" transform="rotate(112.5, 250, 250)" />
      <path d="M250 50 C270 70, 270 90, 250 110 C230 90, 230 70, 250 50Z" transform="rotate(135, 250, 250)" />
      <path d="M250 50 C270 70, 270 90, 250 110 C230 90, 230 70, 250 50Z" transform="rotate(157.5, 250, 250)" />
      <path d="M250 50 C270 70, 270 90, 250 110 C230 90, 230 70, 250 50Z" transform="rotate(180, 250, 250)" />
      <path d="M250 50 C270 70, 270 90, 250 110 C230 90, 230 70, 250 50Z" transform="rotate(202.5, 250, 250)" />
      <path d="M250 50 C270 70, 270 90, 250 110 C230 90, 230 70, 250 50Z" transform="rotate(225, 250, 250)" />
      <path d="M250 50 C270 70, 270 90, 250 110 C230 90, 230 70, 250 50Z" transform="rotate(247.5, 250, 250)" />
      <path d="M250 50 C270 70, 270 90, 250 110 C230 90, 230 70, 250 50Z" transform="rotate(270, 250, 250)" />
      <path d="M250 50 C270 70, 270 90, 250 110 C230 90, 230 70, 250 50Z" transform="rotate(292.5, 250, 250)" />
      <path d="M250 50 C270 70, 270 90, 250 110 C230 90, 230 70, 250 50Z" transform="rotate(315, 250, 250)" />
      <path d="M250 50 C270 70, 270 90, 250 110 C230 90, 230 70, 250 50Z" transform="rotate(337.5, 250, 250)" />
    </g>
    
    <!-- Mid-circle petal design -->
    <g fill="none" stroke="#D4AF37" stroke-width="0.8">
      <path d="M250 130 C260 140, 260 150, 250 160 C240 150, 240 140, 250 130Z" transform="rotate(0, 250, 250)" />
      <path d="M250 130 C260 140, 260 150, 250 160 C240 150, 240 140, 250 130Z" transform="rotate(22.5, 250, 250)" />
      <path d="M250 130 C260 140, 260 150, 250 160 C240 150, 240 140, 250 130Z" transform="rotate(45, 250, 250)" />
      <path d="M250 130 C260 140, 260 150, 250 160 C240 150, 240 140, 250 130Z" transform="rotate(67.5, 250, 250)" />
      <path d="M250 130 C260 140, 260 150, 250 160 C240 150, 240 140, 250 130Z" transform="rotate(90, 250, 250)" />
      <path d="M250 130 C260 140, 260 150, 250 160 C240 150, 240 140, 250 130Z" transform="rotate(112.5, 250, 250)" />
      <path d="M250 130 C260 140, 260 150, 250 160 C240 150, 240 140, 250 130Z" transform="rotate(135, 250, 250)" />
      <path d="M250 130 C260 140, 260 150, 250 160 C240 150, 240 140, 250 130Z" transform="rotate(157.5, 250, 250)" />
      <path d="M250 130 C260 140, 260 150, 250 160 C240 150, 240 140, 250 130Z" transform="rotate(180, 250, 250)" />
      <path d="M250 130 C260 140, 260 150, 250 160 C240 150, 240 140, 250 130Z" transform="rotate(202.5, 250, 250)" />
      <path d="M250 130 C260 140, 260 150, 250 160 C240 150, 240 140, 250 130Z" transform="rotate(225, 250, 250)" />
      <path d="M250 130 C260 140, 260 150, 250 160 C240 150, 240 140, 250 130Z" transform="rotate(247.5, 250, 250)" />
      <path d="M250 130 C260 140, 260 150, 250 160 C240 150, 240 140, 250 130Z" transform="rotate(270, 250, 250)" />
      <path d="M250 130 C260 140, 260 150, 250 160 C240 150, 240 140, 250 130Z" transform="rotate(292.5, 250, 250)" />
      <path d="M250 130 C260 140, 260 150, 250 160 C240 150, 240 140, 250 130Z" transform="rotate(315, 250, 250)" />
      <path d="M250 130 C260 140, 260 150, 250 160 C240 150, 240 140, 250 130Z" transform="rotate(337.5, 250, 250)" />
    </g>
  </g>
  
  <!-- Central flower element -->
  <g fill="none" stroke="#D4AF37" stroke-width="1">
    <circle cx="250" cy="250" r="30" />
    <circle cx="250" cy="250" r="25" />
    <circle cx="250" cy="250" r="20" />
    <circle cx="250" cy="250" r="15" />
    <circle cx="250" cy="250" r="10" />
    <circle cx="250" cy="250" r="5" />
    
    <!-- Small decorative petals at center -->
    <path d="M250 220 C255 225, 255 230, 250 235 C245 230, 245 225, 250 220Z" />
    <path d="M250 220 C255 225, 255 230, 250 235 C245 230, 245 225, 250 220Z" transform="rotate(45, 250, 250)" />
    <path d="M250 220 C255 225, 255 230, 250 235 C245 230, 245 225, 250 220Z" transform="rotate(90, 250, 250)" />
    <path d="M250 220 C255 225, 255 230, 250 235 C245 230, 245 225, 250 220Z" transform="rotate(135, 250, 250)" />
    <path d="M250 220 C255 225, 255 230, 250 235 C245 230, 245 225, 250 220Z" transform="rotate(180, 250, 250)" />
    <path d="M250 220 C255 225, 255 230, 250 235 C245 230, 245 225, 250 220Z" transform="rotate(225, 250, 250)" />
    <path d="M250 220 C255 225, 255 230, 250 235 C245 230, 245 225, 250 220Z" transform="rotate(270, 250, 250)" />
    <path d="M250 220 C255 225, 255 230, 250 235 C245 230, 245 225, 250 220Z" transform="rotate(315, 250, 250)" />
  </g>
  
  <!-- Decorative center dot -->
  <circle cx="250" cy="250" r="3" fill="#D4AF37" />
</svg>