<?xml version="1.0" encoding="UTF-8"?>
<svg width="240" height="240" viewBox="0 0 240 240" xmlns="http://www.w3.org/2000/svg">
  <defs>
    <!-- Mehendi Pattern Tile -->
    <pattern id="mehendiTile" x="0" y="0" width="120" height="120" patternUnits="userSpaceOnUse">
      <!-- Paisleys -->
      <path d="M30 30 C40 20, 50 25, 45 40 S55 50, 45 55 S30 50, 30 30Z" 
            fill="none" stroke="#FFD700" stroke-width="1" stroke-opacity="0.5"/>
      <path d="M90 30 C80 20, 70 25, 75 40 S65 50, 75 55 S90 50, 90 30Z" 
            fill="none" stroke="#FFD700" stroke-width="1" stroke-opacity="0.5"/>
      <path d="M30 90 C40 100, 50 95, 45 80 S55 70, 45 65 S30 70, 30 90Z" 
            fill="none" stroke="#FFD700" stroke-width="1" stroke-opacity="0.5"/>
      <path d="M90 90 C80 100, 70 95, 75 80 S65 70, 75 65 S90 70, 90 90Z" 
            fill="none" stroke="#FFD700" stroke-width="1" stroke-opacity="0.5"/>
      
      <!-- Center Flower -->
      <circle cx="60" cy="60" r="15" fill="none" stroke="#FFD700" stroke-width="1" stroke-opacity="0.6"/>
      <circle cx="60" cy="60" r="10" fill="none" stroke="#FFD700" stroke-width="1" stroke-opacity="0.6"/>
      <circle cx="60" cy="60" r="5" fill="none" stroke="#FFD700" stroke-width="1" stroke-opacity="0.6"/>
      
      <!-- Flower Petals -->
      <path d="M60 45 C65 40, 70 40, 75 45 S70 55, 60 45Z" 
            fill="none" stroke="#FFD700" stroke-width="1" stroke-opacity="0.5"/>
      <path d="M75 60 C80 55, 80 50, 75 45 S65 50, 75 60Z" 
            fill="none" stroke="#FFD700" stroke-width="1" stroke-opacity="0.5"/>
      <path d="M60 75 C55 80, 50 80, 45 75 S50 65, 60 75Z" 
            fill="none" stroke="#FFD700" stroke-width="1" stroke-opacity="0.5"/>
      <path d="M45 60 C40 65, 40 70, 45 75 S55 70, 45 60Z" 
            fill="none" stroke="#FFD700" stroke-width="1" stroke-opacity="0.5"/>
      
      <!-- Diagonal Patterns -->
      <path d="M20 20 C30 10, 40 20, 30 30" 
            fill="none" stroke="#FFD700" stroke-width="1" stroke-opacity="0.5"/>
      <path d="M100 20 C90 10, 80 20, 90 30" 
            fill="none" stroke="#FFD700" stroke-width="1" stroke-opacity="0.5"/>
      <path d="M20 100 C30 110, 40 100, 30 90" 
            fill="none" stroke="#FFD700" stroke-width="1" stroke-opacity="0.5"/>
      <path d="M100 100 C90 110, 80 100, 90 90" 
            fill="none" stroke="#FFD700" stroke-width="1" stroke-opacity="0.5"/>
      
      <!-- Decorative Dots -->
      <g fill="#FFD700" fill-opacity="0.6">
        <circle cx="15" cy="15" r="1.5"/>
        <circle cx="25" cy="15" r="1"/>
        <circle cx="35" cy="15" r="1.5"/>
        
        <circle cx="105" cy="15" r="1.5"/>
        <circle cx="95" cy="15" r="1"/>
        <circle cx="85" cy="15" r="1.5"/>
        
        <circle cx="15" cy="105" r="1.5"/>
        <circle cx="25" cy="105" r="1"/>
        <circle cx="35" cy="105" r="1.5"/>
        
        <circle cx="105" cy="105" r="1.5"/>
        <circle cx="95" cy="105" r="1"/>
        <circle cx="85" cy="105" r="1.5"/>
        
        <circle cx="60" cy="10" r="1.5"/>
        <circle cx="60" cy="20" r="1"/>
        <circle cx="60" cy="30" r="1.5"/>
        
        <circle cx="60" cy="110" r="1.5"/>
        <circle cx="60" cy="100" r="1"/>
        <circle cx="60" cy="90" r="1.5"/>
        
        <circle cx="10" cy="60" r="1.5"/>
        <circle cx="20" cy="60" r="1"/>
        <circle cx="30" cy="60" r="1.5"/>
        
        <circle cx="110" cy="60" r="1.5"/>
        <circle cx="100" cy="60" r="1"/>
        <circle cx="90" cy="60" r="1.5"/>
      </g>
    </pattern>
  </defs>
  
  <!-- Main pattern rectangle -->
  <rect x="0" y="0" width="240" height="240" fill="url(#mehendiTile)"/>
</svg>