<?xml version="1.0" encoding="UTF-8"?>
<svg width="1200" height="100" viewBox="0 0 1200 100" xmlns="http://www.w3.org/2000/svg">
  <!-- Golden Ornate Border Pattern -->
  <defs>
    <!-- Floral Pattern -->
    <pattern id="floral" x="0" y="0" width="100" height="100" patternUnits="userSpaceOnUse">
      <path d="M50 10 C60 20, 70 0, 50 0 C30 0, 40 20, 50 10" fill="#FFD700" opacity="0.9"/>
      <path d="M50 10 C40 20, 30 0, 50 0 C70 0, 60 20, 50 10" fill="#FFD700" opacity="0.9"/>
      <path d="M50 100 C60 90, 70 100, 50 100 C30 100, 40 90, 50 100" fill="#FFD700" opacity="0.9"/>
      <path d="M50 100 C40 90, 30 100, 50 100 C70 100, 60 90, 50 100" fill="#FFD700" opacity="0.9"/>
      <path d="M0 50 C10 60, 0 70, 0 50 C0 30, 10 40, 0 50" fill="#FFD700" opacity="0.9"/>
      <path d="M0 50 C10 40, 0 30, 0 50 C0 70, 10 60, 0 50" fill="#FFD700" opacity="0.9"/>
      <path d="M100 50 C90 60, 100 70, 100 50 C100 30, 90 40, 100 50" fill="#FFD700" opacity="0.9"/>
      <path d="M100 50 C90 40, 100 30, 100 50 C100 70, 90 60, 100 50" fill="#FFD700" opacity="0.9"/>
    </pattern>
  </defs>
  
  <!-- Top Border -->
  <rect x="0" y="0" width="1200" height="20" fill="url(#floral)"/>
  
  <!-- Bottom Border -->
  <rect x="0" y="80" width="1200" height="20" fill="url(#floral)"/>
  
  <!-- Left & Right Decorative Elements -->
  <circle cx="20" cy="50" r="15" fill="#FFD700" opacity="0.8"/>
  <circle cx="1180" cy="50" r="15" fill="#FFD700" opacity="0.8"/>
  
  <!-- Center Element -->
  <path d="M595 50 C605 60, 615 40, 595 40 C575 40, 585 60, 595 50" fill="#FFD700"/>
  <path d="M605 50 C595 60, 585 40, 605 40 C625 40, 615 60, 605 50" fill="#FFD700"/>
</svg>