<?xml version="1.0" encoding="UTF-8"?>
<svg width="1200" height="80" viewBox="0 0 1200 80" xmlns="http://www.w3.org/2000/svg">
  <defs>
    <!-- Mehendi Pattern -->
    <pattern id="mehendiPattern" x="0" y="0" width="120" height="80" patternUnits="userSpaceOnUse">
      <!-- Basic Mehendi Element -->
      <g fill="none" stroke="#FFD700" stroke-width="1.5" stroke-opacity="0.9">
        <!-- Swirl Pattern -->
        <path d="M0 40 C10 30, 20 40, 15 50 S20 60, 30 55 S25 45, 20 40" />
        <path d="M40 40 C50 30, 60 40, 55 50 S60 60, 70 55 S65 45, 60 40" />
        <path d="M80 40 C90 30, 100 40, 95 50 S100 60, 110 55 S105 45, 100 40" />
        
        <!-- Dots Pattern -->
        <circle cx="10" cy="30" r="1.5" fill="#FFD700" stroke="none"/>
        <circle cx="15" cy="25" r="1" fill="#FFD700" stroke="none"/>
        <circle cx="20" cy="30" r="1.5" fill="#FFD700" stroke="none"/>
        
        <circle cx="50" cy="30" r="1.5" fill="#FFD700" stroke="none"/>
        <circle cx="55" cy="25" r="1" fill="#FFD700" stroke="none"/>
        <circle cx="60" cy="30" r="1.5" fill="#FFD700" stroke="none"/>
        
        <circle cx="90" cy="30" r="1.5" fill="#FFD700" stroke="none"/>
        <circle cx="95" cy="25" r="1" fill="#FFD700" stroke="none"/>
        <circle cx="100" cy="30" r="1.5" fill="#FFD700" stroke="none"/>
        
        <!-- Leaf Pattern -->
        <path d="M20 60 C25 55, 30 60, 25 65 S30 70, 25 75" />
        <path d="M60 60 C65 55, 70 60, 65 65 S70 70, 65 75" />
        <path d="M100 60 C105 55, 110 60, 105 65 S110 70, 105 75" />
      </g>
    </pattern>
  </defs>
  
  <!-- Main Border Element with repeating Mehendi pattern -->
  <rect x="0" y="0" width="1200" height="80" fill="url(#mehendiPattern)"/>
  
  <!-- Main Horizontal Line -->
  <rect x="0" y="39" width="1200" height="2" fill="#FFD700" opacity="0.7"/>
  
  <!-- Decorative Elements Along the Border -->
  <g fill="#FFD700" opacity="0.9">
    <!-- Left Side Decorative Elements -->
    <circle cx="30" cy="40" r="6"/>
    <circle cx="150" cy="40" r="6"/>
    <circle cx="270" cy="40" r="6"/>
    <circle cx="390" cy="40" r="6"/>
    <circle cx="510" cy="40" r="6"/>
    
    <!-- Right Side Decorative Elements -->
    <circle cx="690" cy="40" r="6"/>
    <circle cx="810" cy="40" r="6"/>
    <circle cx="930" cy="40" r="6"/>
    <circle cx="1050" cy="40" r="6"/>
    <circle cx="1170" cy="40" r="6"/>
    
    <!-- Center Decorative Element -->
    <circle cx="600" cy="40" r="10"/>
    <circle cx="600" cy="40" r="5" fill="#1A374D"/>
  </g>
</svg>